/* XPM */
static char *_79a8343130e41d4bf86f5c95c066856LXT7wCeIwrfldpdj[] = {
/* columns rows colors chars-per-pixel */
"48 48 10 1 ",
"  c None",
". c #1D1D1C",
"X c #A6557B",
"o c #A27CB7",
"O c #834A59",
"+ c #D31212",
"@ c #745888",
"# c #3A3346",
"$ c #504261",
"% c white",
/* pixels */
"                                                ",
"                                                ",
"                                                ",
"                                                ",
"                                                ",
"                                                ",
"        ....                        ....        ",
"        ....                        ....        ",
"        ....                        ....        ",
"        ....                        ....        ",
"        ........    ........    ........        ",
"        ........    ........    ........        ",
"        ........    ........    ........        ",
"        ........    ........    ........        ",
"        ....XXXX....oooooooo....OOOO....        ",
"        ....XXXX....oooooooo....OOOO....        ",
"        ....XXXX....oooooooo....OOOO....        ",
"        ....XXXX....oooooooo....OOOO....        ",
"            ....oooo++++@@@@++++....            ",
"            ....oooo++++@@@@++++....            ",
"            ....oooo++++@@@@++++....            ",
"            ....oooo++++@@@@++++....            ",
"        ....oooo@@@@########@@@@@@@@....        ",
"        ....oooo@@@@########@@@@@@@@....        ",
"        ....oooo@@@@########@@@@@@@@....        ",
"        ....oooo@@@@########@@@@@@@@....        ",
"    ....oooo....$$$$@@@@@@@@$$$$....@@@@....    ",
"    ....oooo....$$$$@@@@@@@@$$$$....@@@@....    ",
"    ....oooo....$$$$@@@@@@@@$$$$....@@@@....    ",
"    ....oooo....$$$$@@@@@@@@$$$$....@@@@....    ",
"        ....    ....$$$$$$$$....    ....        ",
"        ....    ....$$$$$$$$....    ....        ",
"        ....    ....$$$$$$$$....    ....        ",
"        ....    ....$$$$$$$$....    ....        ",
"                ....####........                ",
"                ....####........                ",
"                ....####........                ",
"                ....####........                ",
"                ........    ........            ",
"                ........    ........            ",
"                ........    ........            ",
"                ........    ........            ",
"                                                ",
"                                                ",
"                                                ",
"                                                ",
"                                                ",
"                                                "
};
