/* XPM */
static char *result[] = {
/* columns rows colors chars-per-pixel */
"48 48 134 2 ",
"   c #452B1D",
".  c #543419",
"X  c #5D551C",
"o  c #635C1B",
"O  c #6B6F19",
"+  c #6D7116",
"@  c #6E721A",
"#  c #707316",
"$  c #71741B",
"%  c #75791F",
"&  c #544335",
"*  c #574539",
"=  c #655D27",
"-  c #645C2C",
";  c #60553E",
":  c #6D6E25",
">  c #6D6E2C",
",  c #6F7123",
"<  c #6F7029",
"1  c #727524",
"2  c #767922",
"3  c #7A7C22",
"4  c #74762C",
"5  c #76782D",
"6  c #7A7C2A",
"7  c #6A6136",
"8  c #6D6E31",
"9  c #6A653F",
"0  c #6D6C3B",
"q  c #6E7135",
"w  c #737434",
"e  c #767834",
"r  c #797A36",
"t  c #74753B",
"y  c #77783E",
"u  c #797A3C",
"i  c #64594E",
"p  c #685E54",
"a  c #686740",
"s  c #6D6B45",
"d  c #6E6B4C",
"f  c #716F43",
"g  c #706E4B",
"h  c #747443",
"j  c #777846",
"k  c #7B7C45",
"l  c #73724C",
"z  c #78774F",
"x  c #7B7B4A",
"c  c #6B6255",
"v  c #6E6B51",
"b  c #6D6559",
"n  c #716E53",
"m  c #716758",
"M  c #716B5C",
"N  c #737157",
"B  c #7B7C54",
"V  c #74725B",
"C  c #79775D",
"Z  c #7D7D5C",
"A  c #726F62",
"S  c #767461",
"D  c #797764",
"F  c #7D7C65",
"G  c #797769",
"H  c #7C7B6D",
"J  c #7F7E71",
"K  c #855B25",
"L  c #875D28",
"P  c #856323",
"I  c #886325",
"U  c #8A6728",
"Y  c #93662A",
"T  c #946F2A",
"R  c #94752D",
"E  c #9C722E",
"W  c #957730",
"Q  c #9D773A",
"!  c #9E7E3B",
"~  c #807F63",
"^  c #807F6D",
"/  c #807F72",
"(  c #7E803A",
")  c #7F804F",
"_  c #7F8052",
"`  c #7F8059",
"'  c #CA9B3E",
"]  c #80814C",
"[  c #818157",
"{  c #80805B",
"}  c #818064",
"|  c #84836B",
" . c #838274",
".. c #888775",
"X. c #868579",
"o. c #88877B",
"O. c #8A887E",
"+. c #CA9D41",
"@. c #CBA646",
"#. c #CCAF46",
"$. c #CCAD48",
"%. c #CCB14B",
"&. c #CFB458",
"*. c #E8B047",
"=. c #EAB54A",
"-. c #ECBB4B",
";. c #EDBC54",
":. c #EEC44C",
">. c #F0C74C",
",. c #F1CB4C",
"<. c #EEC25A",
"1. c #F1CB53",
"2. c #F2CA5B",
"3. c #EDD058",
"4. c #F4D25E",
"5. c #EFC260",
"6. c #ECCD69",
"7. c #F0C463",
"8. c #F3CE63",
"9. c #F3CF6D",
"0. c #F3D465",
"q. c #F4D36C",
"w. c #F8D96D",
"e. c #F2CF72",
"r. c #ECD279",
"t. c #EFDC7B",
"y. c #F9D776",
"u. c #F6D975",
"i. c #F7D67A",
"p. c #F8D77B",
"a. c #F0D87C",
"s. c #FADC79",
"d. c #8B8981",
"f. c #F9DC81",
/* pixels */
"$ 1 8 > 8 0 q 8 0 q 1 # $ 1 q < 8 w 8 8 q 1 $ $ $ < a 0 q 0 q 1 1 < @ $ $ < < > > < 8 8 q 8 @ $ ",
"1 z | F F ` | F ` F z 1 4 ` | | | | | | | | ) @ 4 ` X.` F ` ` F H H y $ $ $ $ r C F F F S G w $ ",
"e X.J J J J J J J J  .4 k ..X.X.X.X.o.X.o.o...1 k  .J ` / J J ` ` d.} 1 @ $ ( k G H H H H H ` % ",
"e X.J / J X.` J | J  .5 ) X.X...o.o.X.X...o...5 k  .J J J J X.X.J J ` 1 $ % 6 F H H H H H H ` @ ",
"t X.J J J J J J / J X.5 ) o.X.X.o.X.o.X...X...1 h J ` ` X.J J J J J _ 3 2 $ j H H H H H G J ` , ",
"e d.J J J X.J J / `  .w k o.X.X...o...X...o...2 < g w ( A / J J J J | 4 2 h V H H H H H G J ` @ ",
"e X.J J J J / J / J  .5 ) ..X...X.X...o.X.X...1 $ , < $ < M / J J J ` , x J H H H H H H H J G @ ",
"t X.J J X.J J X.J J | 2 ) ..X...o.o.X.o.o.o...1 # + + + @ > A / J X.` @ B J H H H H H H G J S @ ",
"4 G  .H J / / / / ` X.e k ....o...X.....X.X...1 e x B w $ $ < F J J | $ B J H H H J H J G J Z # ",
"@ 0 G  .J J J J J J  .w ) o.X.X.X... ...X.X. .1 j  .J H e $ 1 |  .J F $ B J H H H H G J J J Z $ ",
"$ $ 0 F X. . . . . .H 4 h X.O.O.O.] ~ ..O.X.l $ h  . . .^ 1 $ Z J X.} 1 > S J J J J  .J J J x # ",
"$ # # 0 N M N M M n s : @ z D C ~ $ w D C h $ $ , l N V l $ + : 0 N l $ @ > v v v b v v M v 1 $ ",
"$ $ 4 4 : 4 w q w w 1 @ $ $ 1 w 1 4 4 w e e $ $ $ $ , , w w 4 5 w w 1 $ $ 4 w w q w w q 4 O $ $ ",
"4 B H S 4 Z H G G H B 1 @ e x H ^ ^ J H ^ H z 1 $ $ $ e F ^ | H ^ H k @ r F H ^ J J ^ H B y 1 $ ",
"e / H H S N J H H H J 4 e F / J J J J H ^ /  .1 $ $ e } J J J J J J ^ $ Z  .^ J / H J / / / x $ ",
"e J H H H q d J J J / 4 x  ./ / J / `  .G b b o o 9 b H J J J J J / } $ Z  .H /  ./ / J / / } $ ",
"t J H H H j : 0 M A M 1 k  .H / J J J p & . K L U P . & c H J ` J / ~ $ ~ /  ./ / / / J / / ~ # ",
"t J H H H G j 8 : : > $ k  ./ / J X.p   W &.i.e.w.1.%.R   i J X./ / ^ $ ~ / H / ^ / J J / / ~ # ",
"w ` H H H H G G e 4 $ # k  .J / J i   ! a.p.7.;.2.y.u.t.]   i J ^ / ~ $ B H ^ /  .J J  . ./ C # ",
"h X.G H H H G H J C y 1 k / J / p   Q r.e.=.=.=.-.:.1.u.p.!   b / / ^ 1 ~ | H  .H J J / H D 8 $ ",
"t X.J J H H H J H H J 4 h  ./ G & W p.i.*.=.-.>.:.:.,.,.y.0.R & G / | $ Z J J / H  ./ N : : $ $ ",
"t ` G H G H G G G H H 5 : S X.M . @.f.5.*.-.-.>.:.,.,.>.>.0.#.. b / ~ $ Z / J H / / g , $ $ # $ ",
"q ` ` X.` d.d.` `  . .5 $ > N i 7 q.y.-.=.>.>.>.:.,.,.,.,.:.:.K b  .C $ h  .X.X. .N @ $ $ $ $ $ ",
"@ 0 b b v v b b M v d < $ $ 1 X K p.p.=.>.-.-.>.,.,.,.,.,.>.,.I ; d > $ : g n n d @ $ $ $ $ $ $ ",
"@ @ : < t g h t w w < $ $ 4 e = L p.p.-.,.>.,.,.,.,.,.,.,.:.-.K - w 1 # # 4 t w w e e e e e $ $ ",
"@ @ 4 ` ` ` ` ` | H Z 4 5 F H c K q.p.:.:.:.,.,.,.,.,.>.>.>.=.K m ..~ # u ^ H ^ J J J J J ^ k $ ",
"% w ` / J J X.X./ J | 5 k  .J b . @.u.:.>.,.,.,.,.,.,.>.:.=.' . M o.| $ ~ ^ ^ / J J J J J J { $ ",
"( ` ` / / J / J J J  .5 k  .H H & T <.0.1.,.:.>.,.,.,.:.=.=.Y &  .o.| % ~ ^ ^ / / / / / J / } $ ",
"h / J J / J / / ^ J  .5 x  .J J p   E 6.0.>.,.>.-.>.:.=.*.E   b X.X.| $ Z / ^ / / / / / J  .F # ",
"t d.J / / / J / / J  .5 h / J J H i   ! 3.q.s.4.1.4.;.=.E   p  .X.X.| % ~ / J J / / / / J J { $ ",
"t ` J / / / / J / J  .5 1 0 F o./ J i   R $.9.y.y.8.+.Y   p X.X.X.X.| 1 [ ^ H / / / / / J  .{ $ ",
"j d.J / J J J / / J | w $ $ q M J X./ c & . K L L K . * b X.X.X...X.| $ h  .X. .J / H / /  .} # ",
"( d./ / / / / ` X.A s , $ # $ , q g d F H b c o 7 M M / X.X.o.| | ` N 1 , f d D ` ` ` X.J / H @ ",
"t ` / / / / / / A a # + $ $ @ $ # # $ w J J  .1 k X.X.X.X.X...y R 4 < @ $ @ @ q J d.J J X.J F @ ",
"> G d./ ` d.` A 0 @ @ + $ $ $ $ + # ( $ V  .C 1 w | d.O.d. .h < % % # $ $ $ $ @ a G ` X. . .l $ ",
", q s c s v v > , @ ( + $ $ $ $ + ( # @ < s > $ $ t l l g f $ $ @ @ # $ $ $ $ @ , 8 v v d s < $ ",
"@ 5 B z ) j l ) # + # + $ $ $ $ $ $ $ $ $ $ $ $ $ $ $ $ 1 $ $ $ @ # # # # # f h e h 4 @ $ @ $ $ ",
"( ` d.d.d.` X.d.) + ( + # $ $ $ $ + @ $ $ $ $ $ $ $ $ $ $ $ $ $ $ $ # # # ) J J J G w $ t z k $ ",
"( d.` ` d.` d.X.[ ( # ( ( # # $ $ $ $ $ $ $ $ $ $ $ $ $ $ $ $ $ ( # + + $ ) ` ` G 0 @ 4 F J F $ ",
"t d.d.d.X.X.d.J 2 ( + + + # ( $ $ $ # $ $ $ $ $ $ $ $ $ $ $ $ $ # ( ( + % ( g A 0 @ @ z H H Z $ ",
"( d. .o.X.X.` ( @ $ ( + + ( ( + $ $ $ $ $ % % $ $ $ $ $ $ $ $ $ @ @ @ $ % 1 : : $ $ z H H H D @ ",
"( O.o.o.X.H t % ( $ + + # + ( + $ $ $ $ $ $ $ $ $ # % $ $ $ $ $ $ $ @ $ $ @ @ 4 4 k J H H H ` $ ",
"e O.X. .X.h $ + + # + + ( + + + # # # # $ $ $ $ $ % $ $ $ $ $ # $ $ $ + @ @ 4 Z H H G H H J F @ ",
"e d... . .e # $ + + ( + + + + + % # # # $ # $ $ $ $ $ % $ $ $ $ $ $ $ $ $ $ y J H H J G H J ` # ",
"r d.X.F q $ # $ # + ( # + + ( + $ $ $ # % $ # $ $ $ $ % $ $ $ % $ $ $ $ $ $ w J H H H H H H D @ ",
"5 G V q + + # $ # + + # + + + + $ $ $ ( ( % $ $ $ $ $ # $ % $ $ $ $ $ $ $ $ < l H H H H H H ` @ ",
"$ < , $ # ( # # # # # # + + ( + $ $ # % # # $ $ $ $ $ $ $ $ $ $ $ $ $ $ $ $ @ , v J J J J J s $ ",
"$ # $ $ # # # + + ( # # + ( # + $ # # + # # $ $ $ $ % $ $ $ $ $ % $ $ $ $ @ $ @ > a 9 a a 0 , $ "
};
