/* XPM */
static char *result[] = {
/* columns rows colors chars-per-pixel */
"48 48 68 1 ",
"  c #6B6F19",
". c #6D7116",
"X c #6E721A",
"o c #707316",
"O c #71741B",
"+ c #75791F",
"@ c #6D6E25",
"# c #6D6E2C",
"$ c #6F7123",
"% c #6F7029",
"& c #737524",
"* c #767922",
"= c #7A7C22",
"- c #74762C",
"; c #76782D",
": c #7A7C2A",
"> c #6D6E31",
", c #69673F",
"< c #6D6C3B",
"1 c #6E7135",
"2 c #737434",
"3 c #767834",
"4 c #787A36",
"5 c #74753A",
"6 c #77783E",
"7 c #686740",
"8 c #6D6B45",
"9 c #6E6B4C",
"0 c #716F43",
"q c #706E4C",
"w c #747443",
"e c #777846",
"r c #7B7C45",
"t c #73724C",
"y c #78774F",
"u c #7C7C4A",
"i c #6E6B52",
"p c #716E53",
"a c #716F59",
"s c #737157",
"d c #7B7C54",
"f c #74725B",
"g c #79775D",
"h c #7D7D5C",
"j c #726F62",
"k c #767462",
"l c #797764",
"z c #7D7C65",
"x c #797769",
"c c #7C7B6D",
"v c #7F7E71",
"b c #807F63",
"n c #807F6D",
"m c #807F72",
"M c #7E803A",
"N c #7F804F",
"B c #7F8059",
"V c #80814C",
"C c #818157",
"Z c #80805B",
"A c #818064",
"S c #84836C",
"D c #838274",
"F c #888775",
"G c #868579",
"H c #88877B",
"J c #89887E",
"K c #8B8981",
/* pixels */
"O&>>>1>><<&XO%%>>1>#%;+XO%,<1<1&&&O+O$@##1%>1#X+",
"&yAzBcvBBBu&*CFSSSSSSSNX-BGBzBBzzzeOOo+elllzxl3X",
"3GvvvvvvvvD-rGGGGGHGHGG*rDvBvvvvmmA&OO*ucxccxvg+",
"4GvvDvvDDcD;NFFGHHHHGGG*rDvvvGGBmmZOO+4BccccccBX",
"wGvvvGvvcBG2uJFHGHFHGFF*6vhBGvvvmvb=&OevccccccBX",
"5KvvBGmvDvD3rGFGGGGGGHG-%92Mjmvvmmb+=wgccccccch+",
"3DvvvvmmmvD;NFFGGGFGFGF*X$%+#ammvmz uvcxccccccxX",
"4GvvvvGvvSD;rHGGGGHHHGF*oo..X#jmmmAXdvccccccxvlX",
"1xDvvmmmmvD34FFGGGFFFGF-3yd3OO%AmmnObzccccccccho",
"O>xvvvvmvvD-bHFFGFSFGFF&rDvc5O&Ammn+yvxccccccczO",
"OO<zDDGDmDz-wGJJJVbHJGtO6DDDA&Ogmmb&#kmvvvvvvvuX",
"OOo<aaasap9@OtlguO>lgwXO%9sasO.%1atOX#iiiaipap&O",
"O&--$%1252&OOO&2322252OOOX%$-32222$OO%21<121- OO",
"&dck2hcxcxy&X3ucncBBScy+OOX4BvBcnneO5bmnvvnmd6&O",
"3mcvgsvcccc33nmvvvGmvvD:OO6cvvBGmmbObmncmcmnmmuO",
"3vcxc19vvvm-rmvmvvvGvvS&&hvvvvvGmmbobmmmmmmmmmbo",
"tBccce@>aja&rDvDvvvvcDS&rDvvvvvBvmnObmcDmmmvvmbO",
"6vxccxe%@##OrDcvvvvGDvD&uDvvvvGKmmbObmmmmmvvvmbO",
"5Bcccxcl5&O.rDvDKBvvDvD&rKvvmmvvmmbOdvcmmnvmDDdo",
"wGcvxcxcvg6&rmcDmvvvcDS&uBvvmmmvmmA&bSnmvmmmll<O",
"5Gvvvxvvcvv-eDccmmvvvvD&smvvmvmmvvnOhmvvvmms@@OX",
"4Bxxxcxxcxc-%kGGvvvvvvS&uGccvvvvvvAOhmccmmqOOOOO",
"&gmmvmDmvDD3O@sxmvKvGGD&5vvGGmGGDDgOwDGGmq$OOOOO",
"X,ijiiiii99%XO%@iaaiapp&$8iijiiip9#O@qpp9&OOOOOO",
"XXX%1sw16<%XO-33216<25&XX335535552&oo-55245333OO",
"OO%zBBBBvvB*3zccBvvvBcd&4SGGGFFGFFbo6nncvcnvvnrO",
"+3BmvvKGBvD;rDvvGvvvvvS&NHHDGGGGFHSObnnmvmvvvvZO",
"3BBGvvvvDcD3rDvDvvvvvKD-uHGHGGGGFHS+bnnmmmmmvmAO",
"wGvvvGvvcBG;dBvvvvBGvvB-NJFHGHGFGGS+hDcmmmmmvmbo",
"1GvvmvvvDvD2yvvcvvGGvvK1NJGFFHGHGGS+dmmmmmmmmmAo",
"4GvvvvGvvvD3%8xKvvvvvGD*NFGGGGGFFGSOCmmvmmmmmmAO",
"yBvvGvvvvvS;OX,jvGGvvBSXNHGHFGGHGHSOtDGmvmcmmDZo",
"6Gvvvvvvvj8%oOO$<q9lDvD&uJGGGGGSSStO&89lmmmmmmAO",
"4GGBvGvvk<OOOOOoooO5GBD&rGFGJGD6=3&OOXO>zmmmmmbO",
"%xGGBKDk<XOOOOOXoo+*kvf&;DKJKDw@O+OOOOOO<lmmmmto",
"$,7i888#XXOOOOOOoM+X>9%OO5ttq5&OO XOOOooo#99q8&O",
"X;rrrrrr&OOXOoOOOOOOOOOOXOOO&OOOOOOOOO5w6w-OO&OO",
";SHHHGHHCOO+OOOOO..OOOOOOOOOOOOOOOOOOdvcvx-O5yeO",
"4KHGFDDHA*O++OOOOOoOOOOOOOOOOOOO=+OOObbvk<X-lvzo",
"4KGGGGHc3M+X.++OOOOOOOOOOOOOOOOOO+*OO:0j<XOyccbo",
"4KDGGGBM&O*XX*MoOOOOOO+OOOOOOOoOXXXO+*@@OOycxclX",
"4JHGDc6+*OXX++o.OO+oO+OO+OO+OOOOOXOOOXO--yvvcvBO",
"4KFGHwX.X+X O.ooOOooOOOOoOOOO+OOOOOXXX;gxcxxxvhX",
"4KGFD3oOXX+XXOOOoOoooOOOOOOOOOOOOOXOOO6vzvvccvBO",
"4KHl0%oOOO+XOOXOOOoo+OOO+OOOOOOOOOOOOO5vcccccclX",
"3lg%OOOOOO.OOOOOOOOMM+OOOO+OOO+OOOOOOO@qvcccccBX",
"X%%OXOOOOOOOOOOOOOo+.oOOOOoOOOOOOoOOOOX@acvvBcqX",
"OoOOOOOOOOoOOOOOOoo.oooOO+OOOOO+O+OOOOXX#7779,$O"
};
