/* XPM */
static char *result[] = {
/* columns rows colors chars-per-pixel */
"48 48 223 2 ",
"   c #140C38",
".  c #1A123E",
"X  c #251C3E",
"o  c #312E2E",
"O  c #35322D",
"+  c #3C3A2C",
"@  c #2B2735",
"#  c #393536",
"$  c #3A3B35",
"%  c #4C3334",
"&  c #473936",
"*  c #59393A",
"=  c #623A34",
"-  c #733B36",
";  c #3F4130",
":  c #5B5D1E",
">  c #62651D",
",  c #66691C",
"<  c #6A6D1B",
"1  c #6D7116",
"2  c #6E721A",
"3  c #707316",
"4  c #71741B",
"5  c #76791F",
"6  c #43422B",
"7  c #494928",
"8  c #514F28",
"9  c #4F5125",
"0  c #565826",
"q  c #424234",
"w  c #42423A",
"e  c #4A4B39",
"r  c #574D38",
"t  c #52523A",
"y  c #5B5C38",
"u  c #7B473A",
"i  c #6E523C",
"p  c #5E6020",
"a  c #626323",
"s  c #6D6E25",
"d  c #61622A",
"f  c #6B6C2A",
"g  c #6F7023",
"h  c #727424",
"j  c #777A24",
"k  c #74752C",
"l  c #6D6E31",
"z  c #69673F",
"x  c #6C6B3A",
"c  c #78603C",
"v  c #737433",
"b  c #767834",
"n  c #797A36",
"m  c #74743C",
"M  c #787A3C",
"N  c #241D44",
"B  c #261C48",
"V  c #252244",
"C  c #2B2346",
"Z  c #2E2A45",
"A  c #2C244A",
"S  c #2E2B4B",
"D  c #332C45",
"F  c #30274D",
"G  c #332B4C",
"H  c #3A3647",
"J  c #35324D",
"K  c #2F2E50",
"L  c #342D51",
"P  c #363252",
"I  c #3A3552",
"U  c #3C3A54",
"Y  c #3B3958",
"T  c #443D48",
"R  c #533848",
"E  c #403E55",
"W  c #423E5C",
"Q  c #653E41",
"!  c #3F4155",
"~  c #484845",
"^  c #59514E",
"/  c #444354",
"(  c #484956",
")  c #44445B",
"_  c #49475B",
"`  c #4C4B5D",
"'  c #534955",
"]  c #4F535E",
"[  c #5A5756",
"{  c #54545C",
"}  c #5D5B5B",
"|  c #684948",
" . c #62564C",
".. c #715348",
"X. c #645C5D",
"o. c #745F55",
"O. c #676644",
"+. c #6C6B45",
"@. c #776A43",
"#. c #716F4C",
"$. c #757544",
"%. c #7B7C46",
"&. c #73724D",
"*. c #7A7B4B",
"=. c #686757",
"-. c #716E54",
";. c #756E5A",
":. c #737156",
">. c #7A7B54",
",. c #73715B",
"<. c #7C7C5D",
"1. c #464461",
"2. c #484863",
"3. c #4C4D63",
"4. c #534E68",
"5. c #4E5166",
"6. c #515365",
"7. c #5A5766",
"8. c #555A66",
"9. c #54556A",
"0. c #565B6C",
"q. c #595C6B",
"w. c #575971",
"e. c #5B5E72",
"r. c #615E62",
"t. c #5C636D",
"y. c #5E6472",
"u. c #5F6872",
"i. c #676466",
"p. c #6C6B65",
"a. c #716D64",
"s. c #726F6A",
"d. c #757462",
"f. c #797666",
"g. c #7D7D65",
"h. c #74736A",
"j. c #79776A",
"k. c #7C7B6D",
"l. c #616573",
"z. c #636B75",
"x. c #676878",
"c. c #666C79",
"v. c #6B6F7B",
"b. c #677178",
"n. c #6A737C",
"m. c #6E797D",
"M. c #7E7D71",
"N. c #73777A",
"B. c #924834",
"V. c #985638",
"C. c #A15735",
"Z. c #86633E",
"A. c #9E7938",
"S. c #A8653A",
"D. c #B56936",
"F. c #AF783B",
"G. c #C57B36",
"H. c #8C7853",
"J. c #806963",
"K. c #807E68",
"L. c #807F73",
"P. c #847479",
"I. c #7E803A",
"U. c #7F804B",
"Y. c #B98637",
"T. c #B48F39",
"R. c #CB8C38",
"E. c #D79D38",
"W. c #E3A93A",
"Q. c #80815B",
"!. c #818062",
"~. c #84836C",
"^. c #848375",
"/. c #898877",
"(. c #858479",
"). c #88877B",
"_. c #C18D40",
"`. c #D2AB50",
"'. c #C8A37A",
"]. c #696D80",
"[. c #6E7482",
"{. c #727584",
"}. c #737C83",
"|. c #797E88",
" X c #758284",
".X c #798586",
"XX c #788887",
"oX c #7B848A",
"OX c #7C8B8C",
"+X c #7F918F",
"@X c #7E8992",
"#X c #8B8981",
"$X c #81858E",
"%X c #818B8D",
"&X c #948A8B",
"*X c #86938F",
"=X c #838794",
"-X c #838B93",
";X c #859394",
":X c #8A9095",
">X c #8B959C",
",X c #919B9B",
"<X c #8EA29D",
"1X c #91A29F",
"2X c #8F9AA0",
"3X c #959CA3",
"4X c #94A2A3",
"5X c #99A8A7",
"6X c #9CA5AB",
"7X c #9FABB0",
"8X c #A2ADAD",
"9X c #A1B4AE",
"0X c #A1ACB1",
"qX c #ADACB7",
"wX c #A7B8B4",
"eX c #B2BBBB",
"rX c #AEC2BA",
"tX c #B0C6BD",
"yX c #BBCBC7",
"uX c #CFE1DA",
"iX c #D3E3DC",
"pX c #DDE9E4",
"aX c #F1F6F4",
/* pixels */
"4 h l l l #.x x x x h 4 4 h v l l v f l l k 4 4 4 k l l l l l h k h 2 5 4 s a y d l f l f f 4 4 ",
"h *.K.g.U.U.U.U.U.g.*.h h Q.~.~.~.~.~.~.~.~.%.4 k <.g.g.~.g.~.g.M.M.$.4 4 , =.$Xi.<.f.f.g.f.n 4 ",
"b (.M.M.L.L.@X|.L.M.^.j U.).(.(.(.(.).).).)./.h %.L.L.L.M.L.M.M.U.$X!.h , t %XeXn.i.k.k.k.M.<.4 ",
"n (.M.L.L.L.L.L.^.k.^.k %././.(.(.(.(.(.^././.j %.^.L.L.M.M.M.M.M.M.U.g 9 v.oX:X>Xi.k.k.k.k.<.4 ",
"b (.L.L.L.L.L.L.L.M.^.k %.).^././.M.M.M.(.(./.h M k.>.~.^.M.L.k.L.L.%.s p.-X X{.3Xr.a.k.k.M.<.4 ",
"b ^.L.L.L.L.L.L.M.M.^.k H.).^.k.a.[ | ^ i.(./.h s #.b n f.L.k.^.M.L.f.t m.}.oXb.3Xl.a.k.j.k.<.3 ",
"b (.L.L.L.L.L.k.h.M.^.b U.U.i. .Z.F.R.Y.Z.p.L.h 4 s k 4 g :.L.^.L.M.,.$ z.m.-Xn.6X8.p.k.M.M.<.4 ",
"b (.L.L.L.L.L.r. .X.M.l O.i.c Y.R.R.E.W.E.@.a.h 3 3 1 1 4 s :.M.M.M.d.w c.m.;Xb.,X4.p.j.j.M.f.3 ",
"k j.L.L.M.M.M.{ i ..| r u F.R.D.V.V.D.G.R.A.=.h b >.>.b 4 4 s K.M.N.d.w c.oX-Xv.,X` p.k.k.M.<.3 ",
"4 x f.L.M.M.M.h.R Z.D.C.D.G.V.u Q Q B.C.G.T.-.h %.^.L.k.b 4 4 ~.#XM.d.e b. X.Xn.6X` i.k.k.M.<.4 ",
"4 4 x K.(.^.(.L.h.| B.B.B.B.= X.N. .& - G.Y.y < m L.^.(.K.h 4 <.U.$Xf.~ n..Xm.N.6Xi.j.M.M.M.*.3 ",
"4 4 3 x :.;.;.;.:. .R = = * ~ [ ^ r # % F.c ; , s #.,.,.#.2 4 s x :.O.e z.XX X|.3X=.=.-.-.;.h 4 ",
"4 4 v h s v v v m l f : p + D / 8.u.u.{ ..=.! q 0 4 g 2 v k k b b v a ~ z.oXoX|.:X^ k v k 2 4 4 ",
"k >.j.<.k <.k.k.k.k.>.h < $ ` l.b. X+XOXm.OX%Xm.^ 0 4 b ~.k.L.k.M.M.#.e u..XoX|.oX7.M.U.>.m h 4 ",
"b L.j.M.<.:.k.k.k.k.k.k y D J ) 0.z.U.@X<X<X1X9XXX6 b ~.^.k.L.K.L.M.f.e t.XX|.@X|.q.M.M.L.L.%.3 ",
"b L.k.k.j.x #.M.M.M.^.k r C G A K 1.].@X<X<X9X9Xm.( k.^.k.M.k.^.oXU.d.~ 8.OX}.3X|.].U.M.L.^.!.3 ",
"$.oXk.j.k.$.g l ;.a.,.k t B G F S P ) t.oXwXiXeXm.( j.M.M.M.M.U.U.oXh.e 6.@X}.3XN.s.M.M.L.L.K.3 ",
"M U.j.M.k.k.$.h s s f 1 t C F A K I ` u.XXeXaXyXb.S { p.p.p.h.|.M.M.i.H t.OXN.6Xz.a.M.M.L.L.K.3 ",
"b L.k.k.k.k.j.d.m h 4 1 r A F A F U 6.t.x.{.=XN.' V N A J J W r.j.M.} Z 8.oX{.6Xq.p.k.^.^.L.<.3 ",
"M L.k.k.k.j.h.h.h.,.x s t A G F F J 5.! R W L R &Xe.S U ( 6.9.6.{ a.} Z 8..X X6X` p.M.M.k.d.l 4 ",
"b M.M.k.h.} U T U ( ' $ @ F G G G J ` z.$X8X3X2.5X].K 2.c.m.XX4X{.{ [ C 8.oX=XqX` s.M.&.f s 4 4 ",
"b M.j.j.=.F B G I U ( U N V F J J I ` 8.z..X>X5.OX[.Y 5.OX XOX5X$X) } C q.oX>X3X{ L.&.g 4 4 4 4 ",
"h <.M.M.( N A L 8.z.n.oX@X2.B G I ) ` ` 8.m.m.Y  X].K 5.U.XXOX<X$XL H N 5.}.0X=X{ :.g 4 4 4 4 4 ",
"4 l -.=.T B B V n. X X;X0Xe.. N D I E _ 8.m.q.A ! K B 1.}.XXXX<X#XZ.c ~ [ ).P.E & a 4 4 4 4 4 4 ",
"4 4 1 h w V F A z..XOX*X5Xy.B N V V V A P Y K F K Y ! 1.t. X X+Xp.S._.`.W.`.H.= % # y v b k 4 4 ",
"4 4 h >.' C G G t.m.m.XX4Xw.A P _ 3.t.u.}.@X>XwXwX9X<X X5.! K K X = V._.W.E.G.D.S.u T h.L.L.*.4 ",
"4 k >.L.i.F V I z.b.y.8.0.W K G _ 5.8.b.@X9XtXpXuXyX4X[.! V V K V . I R i * * R R | ' j.k.L.!.3 ",
"b ^.L.L.k.X.G A 3.b.n.z.u. X}.9.I / 5.y.b.OXwXuXyXyX<X0.5.1.0.t.E A 2.L E 7.W L Z ( h.M.L.L.!.3 ",
"b (.k.M.k.M.i.D ` n.q.z.z.b.wX6XK P _ 9.b.+XwXuXuXwX}.u.! 0.+X@XA K }.3.6.=X4.G / s.M.M.^.M.!.4 ",
"b (.^.L.L.M.k.] ) n.q..X/.l.0X0XL P L L y.+XwXyXyX7X@XOXK @XiX2XV Y 0X[.5.[._ G T h.U.M.k.L.Q.4 ",
"n (.k.~.L.L.L.p.E x.7.J.k.n.0X4XP I G L Y ].yXyXyX+X<X XK ].wXXXA L c.y.[.5Xq.I I s.|.(.L.L.!.4 ",
"b (.L.L.L.L.L.h._ v.P.'.o.l.0X6XY 2.) x.P 5.yXyXrX+X+Xu.V 2.b.w.L F A P 0.c.3.L ( M.M.L.L.^.!.3 ",
"n (.M.M.|.(.L.h.3.c.K.`.o.l.6X0X1.w.Y 9.U 6.2XoXc.5.) U / J J G A C X ) ;XoX9./ { M.L.L.L.L.K.4 ",
"b (.L.M.U.M.M.h.3.z.r.;.x.[.6X6Xw.l.e.-X_ P P S K A 8.h.M.M.p.w + q 8 # t.z._ H } ^.L.L.L.L.K.3 ",
"k j.(.L.).(.P.=.( u.i.M.:Xn.0X4X0.0.2.z.F Y t.Y n.l.{ ).).(.$.f 4 4 h 0 6 O O : l j.(.L.(.^.$.4 ",
"4 x +.+.+.+.+.f 7 t.5.M.,Xv.wX,X0.6.2.b.2.{.}.P $X=XH +.#.+.4 4 2 3 3 4 1 , , 1 1 f +.+.+.+.g 4 ",
"4 k %.%.%.%.%.%.0 ] u.u.N.|.eXx.y.q.5.y./ w.W L :X|.& 1 4 4 4 3 4 4 4 4 4 4 m $.n $.k 2 4 < 4 4 ",
"k ~.).).(.(.(.).<.e c.@XOX9X{.S ) 2.V $ O @ N A 1._ 7 2 4 4 4 4 4 4 4 4 4 >.M.k.M.j.v 4 m >.%.4 ",
"n #X)./.(.(././.!.a w 8.oX].B B P x.~ p , p O A I {.O.1 4 4 4 4 j 5 4 4 4 Q.K.M.h.x 4 k f.M.g.3 ",
"n #X/.(.).^.(.k.M I., 9 ; @   B Y {.} s 4 , o A W |.O.< 4 4 4 4 4 j 5 4 h j &.,.l 4 4 *.k.k.<.4 ",
"n #X(.)./.(.!.n g 4 5 2 < + A S Y 2.; , , 6 Z A ) ` 8 1 4 4 4 4 2 2 2 4 j h s f 4 4 *.k.k.M.<.1 ",
"n )./.^.^.K.m 5 j 4 2 4 < O P P {.[.$ s 0 @ P I >Xb.7 1 4 4 4 4 4 4 4 4 4 1 4 h k *.M.j.k.M.<.2 ",
"n #X^./.).$.4 < 4 4 2 < , o S I @X|.8 2 > @ G I 4Xc.6 1 4 4 4 4 4 4 4 1 1 4 k <.M.j.M.M.k.N.g.3 ",
"n #X/.^.^.b 3 4 1 2 5 4 1 7 Z P 9.2.; , < O G L e.) & < 4 5 4 4 4 4 4 4 4 4 M M.j.k.k.j.k.M.U.4 ",
"n #X).<.+.h 4 4 4 4 4 1 3 9 @ F 1.].] 7 > 6 A A 4.{.( 9 < 4 4 4 4 4 4 4 4 4 b M.k.k.k.k.k.M.<.4 ",
"b f.,.l 4 4 4 4 4 4 4 4 2 9 N A Y b.{.( 8 + N S W {.c.~ a 4 4 4 4 4 4 4 4 4 s -.M.k.k.k.k.M.<.4 ",
"4 k h 4 4 4 4 4 4 4 4 4 3 0 O o o $ w ; 9 9 o o o # ; q a 4 4 4 4 4 4 4 4 4 4 s ;.k.M.M.M.M.+.4 ",
"4 4 4 4 4 4 4 4 4 4 4 4 4 4 , , , , , > < < , , , , , s < 4 4 4 4 4 5 4 4 4 4 3 s z z z O.z 2 4 "
};
