/* XPM */
static char *lava_resized[] = {
/* columns rows colors chars-per-pixel */
"48 48 58 1 ",
"  c #541704",
". c #5B1704",
"X c #551A04",
"o c #5D1C04",
"O c #641D04",
"+ c #6B1E04",
"@ c #731E04",
"# c #7B1E04",
"$ c #662004",
"% c #6C2104",
"& c #6A2804",
"* c #742205",
"= c #7C2305",
"- c #762A04",
"; c #7B2905",
": c #7C3005",
"> c #831F05",
", c #8A1F05",
"< c #842405",
"1 c #8C2405",
"2 c #842A05",
"3 c #8C2A05",
"4 c #932505",
"5 c #9B2605",
"6 c #932B05",
"7 c #9B2B05",
"8 c #853105",
"9 c #8B3205",
"0 c #8D3B05",
"q c #943205",
"w c #9C3305",
"e c #943A05",
"r c #9D3B05",
"t c #A12605",
"y c #A32D06",
"u c #A92D05",
"i c #A43305",
"p c #AC3405",
"a c #A43A05",
"s c #AB3B05",
"d c #B23405",
"f c #B83605",
"g c #B33C05",
"h c #BA3C05",
"j c #C23E05",
"k c #9C4206",
"l c #A44406",
"z c #AC4306",
"x c #A94906",
"c c #B44205",
"v c #BC4406",
"b c #B34A06",
"n c #BC4906",
"m c #C24506",
"M c #C54D06",
"N c #C84C06",
"B c #CD5506",
"V c #D05706",
/* pixels */
"<Od<O>+O<O3uO*#O@**d=O>O+=Oi7o#@O=+<d++>o+=Od<O,",
"vyd<O>*Owip5O#<O;siu#O,+$aip4O#<O9syy+@1$*cyp>O,",
"ne*147dugc;=t1diiv9@54iduha*<55dydb;*51ppyve*346",
"1$=57i==1%+45y3=,=+<57w*<<$@77y2*1=$45y6*><O=t5p",
"s26+%s<-a26=Oeq*qw26O=s=;a26+Oa3*w96<o9i=8a26+*c",
"gakO#q6yhwx:O667gpleO<q4pfrx$@w6tgiz8O1q4dpakO=w",
"<*s61<o+<*qi<4OO<=;s13=o=<*rw<2O+2=8s<6%O=<*s332",
"326+*s<27<6<Oq7=7224+;i=36<7@+a127<3<+3i*6626+*g",
">%a4@i<=1+qy@66@1=;p,=i=<<%i7@w1=1@8p@<i*1<%p1@d",
"w1d>o#+o21yyO@@o*61d@O#OO6<p1o#@X235dO+#o$61f=o>",
"Vs21>5y1cmq<,,u3wNi21>5w3vc31,1u3pMw<,>y66Ms31<4",
"q*@5twq77;+<y7w673$@y5yq57-+6t7w652O>y5i65q%@55i",
"7%3<<s*O6*<1=w9O<1*4=3aO+6*1<=a=o3<=4*wqO=3*6<<c",
"varoOa7wmwz% qy6csa9 *i7ivwloOww7vaz- 3a6scieX+a",
"12z212@<6<kr<6%=619z<7=+162l611%=6<ea<4**118z34<",
"2=7=*q+=3=31+6<$22=6*;6+22*6<*q*%6<<6%33O32=7**i",
"1=w>@g125;q1@wi=7<27#<g<41;w<@i7<5=37@3g#61<w>@v",
"2+d1O1+O<+7uO==o===d@+<O+<+u5O<*o=*3d+@<o@<%f<O4",
"Ndi<+1<%agi5@#1*3vpy>@1<*cgi1@>1%wvp7#@4*<npi>@,",
"c9+555dypr*>t4dyis:$t4ipusq$157pypa**y4upys8+45y",
"1O<57i*%1%@54i3+<=O156r+=<O=56a=%<=+44i6$=<o146s",
"c6qoOs32c6r%oqr=aiq3o*s<3s6wOoa6=sww;X2a<qsqqo+z",
"iql*<9<wp6l9@621pwwk*131ipqx;#625s6le@481piwl*1q",
"=*a3<1o*<*3w=3+O<;;i<2=o*<*w6<2O$<*2i=3*o==*a<<3",
"637+@g117<6=+qi<w314+=g<66<6=+p7<7331+9p=7634+*v",
"<+p1+w**,+6u@21+,**p<@7%=<Oy7+3<@<+2p@<5@=#$d1@y",
"s6f<o>+o9wp5O@#o*iwd@O>+Or7d4.#*o8yypO+>o$a5f=O>",
"Ba*445d7vv8<5,dyiMw*5,ui7vz;144d5gn9=5,uiyMw;115",
"3O@75w211*+1y7q<1<$=y5w211%+55y324;O<y7w21<O#55i",
"p=6@*s=$w22<+r6O26<6+2i%*w<6*%s2O6121Oqw+;w<3*;c",
"cakO@r7pvyx-o6w7vsa0o;w7svwl$Owqyvaz:o1w7ggaeO*a",
"<;z41<o*<=ei<4+O,=8s<5*O#<;rw11O@<=9s<6@O=<;z34<",
"124*%i*2623<O63*q3<4+;w*3624=+w2=7211O26*66<5+*s",
"<*i1#p1<4%q5@wy=4#;i#<d=<1%w4#i6#1*8y#3d*1<*i<#c",
"6=f<o>Oo2=yuO@@o*21d#O#OO3=p4o#@o=24dO+#o%3=f#o,",
"Bg6,#47=zmw1><5<6Ns31#512vv61#17=aNi1,#y23Ns7,#4",
"w;$657iyw3+=y7iyyw%@y5iiy7:O1y6iy7q$;t6iiyw*+757",
"6%111s*O1*=6<i3o#2*1<3iO@1@<4<s=O<=*4<w6o@3+112c",
"vweoOa7qnwa%o9i3csw9 *a4rcqaOoaw6caa; 2s4acwqo+z",
"73x<13*1w1lq#7*=74el=42*479z2<4%171rr#4;=679x=43",
"2*w<;6O*1*37%3=O22;7=23O=3*63*6+%3=<7@3=O<2*7=;6",
"127@@c117=61+wp<7<<6@2g<66=7<@s7<7<94@9g<7127#=m",
"<+d1O1++<+7uO==O=#*f#@1O%<+i7O2@O<%2d@@1O*=+d<+6",
"nid>+,=+rsi7+#1O2ciy#+<#$spu4O><Oqguy+@1$*cpp>+,",
"nq*145gygz*=t1dipc8@51ydyga%154dypc;*t1ppyvq%454",
"1O<77i;@1%+45y3*<=+<77w*=1$#74i2*<*+44yq*#2O<57p",
"z26O%s1=a36;oqw=qw33O;s=2a2w+Oa6=r6q=O9a=9a29O*z",
"hgkX+w7djib&o76yjfz0 >i6hhpxo+w6ujdb-.1w5hggr #a"
};
