/* XPM */
static char *result[] = {
/* columns rows colors chars-per-pixel */
"48 48 225 2 ",
"   c #6A6F1A",
".  c #6E721A",
"X  c #707317",
"o  c #71741B",
"O  c #75791F",
"+  c #6C6E25",
"@  c #6B6D2C",
"#  c #6F7123",
"$  c #6E712A",
"%  c #737524",
"&  c #767922",
"*  c #7A7D22",
"=  c #74762C",
"-  c #787A2C",
";  c #6C6D32",
":  c #66673B",
">  c #66693C",
",  c #6C6C3B",
"<  c #727234",
"1  c #767834",
"2  c #797A36",
"3  c #73743B",
"4  c #77783D",
"5  c #7A7B3C",
"6  c #646644",
"7  c #686740",
"8  c #666843",
"9  c #6C6C44",
"0  c #64664B",
"q  c #66684C",
"w  c #6C6C4C",
"e  c #757646",
"r  c #7B7C46",
"t  c #7A7B4A",
"y  c #646555",
"u  c #666853",
"i  c #6D6B54",
"p  c #63655C",
"a  c #66685A",
"s  c #6A6B5C",
"d  c #716F53",
"f  c #716F5A",
"g  c #737057",
"h  c #7A7A54",
"j  c #75725B",
"k  c #7C7C5D",
"l  c #625F6D",
"z  c #646463",
"x  c #696767",
"c  c #676961",
"v  c #6A6C64",
"b  c #65656C",
"n  c #6A6B6C",
"m  c #716F6F",
"M  c #7D7D65",
"N  c #787668",
"B  c #7C7B6D",
"V  c #636274",
"C  c #6C6D73",
"Z  c #65647C",
"A  c #6C6C7C",
"S  c #6F707A",
"D  c #737374",
"F  c #797771",
"G  c #7E7D72",
"H  c #73747C",
"J  c #78777B",
"K  c #7B797B",
"L  c #807F62",
"P  c #807F73",
"I  c #80814B",
"U  c #80805B",
"Y  c #818163",
"T  c #84846D",
"R  c #848375",
"E  c #888775",
"W  c #868479",
"Q  c #88877B",
"!  c #5D5387",
"~  c #5E4E98",
"^  c #5D5090",
"/  c #635B8C",
"(  c #63589C",
")  c #695E9E",
"_  c #6D6C83",
"`  c #676588",
"'  c #69658D",
"]  c #6D6C8B",
"[  c #706F82",
"{  c #706F8D",
"}  c #747483",
"|  c #7B7B84",
" . c #73728B",
".. c #78788B",
"X. c #7A7A8C",
"o. c #666190",
"O. c #6B6693",
"+. c #6E6D94",
"@. c #6A649B",
"#. c #6E6C9C",
"$. c #706E93",
"%. c #706E9A",
"&. c #737293",
"*. c #787693",
"=. c #7B7C93",
"-. c #72729B",
";. c #78769B",
":. c #7C7B9B",
">. c #5E4CAE",
",. c #665BA4",
"<. c #6559A7",
"1. c #6453AC",
"2. c #685FAE",
"3. c #634DB8",
"4. c #665AB4",
"5. c #695EB4",
"6. c #6655BB",
"7. c #6A5CBB",
"8. c #6B64A4",
"9. c #6E6AA3",
"0. c #6B65A8",
"q. c #6B63AC",
"w. c #716DA3",
"e. c #7469A9",
"r. c #726CAD",
"t. c #7473A3",
"y. c #7A73A6",
"u. c #7A7AA6",
"i. c #7674AA",
"p. c #7B76AC",
"a. c #7A7AAB",
"s. c #6E65B4",
"d. c #6F6AB1",
"f. c #6E64BA",
"g. c #726BB4",
"h. c #7166BD",
"j. c #746BBB",
"k. c #7C6EBC",
"l. c #7671B5",
"z. c #7A75B3",
"x. c #7D7BB3",
"c. c #7670B9",
"v. c #7A74BC",
"b. c #7E7BBB",
"n. c #6A58C4",
"m. c #7055D4",
"M. c #6F62C0",
"N. c #7365C3",
"B. c #7569C2",
"V. c #796FC3",
"C. c #7B6CCC",
"Z. c #7C74C3",
"A. c #7F75C7",
"S. c #817EA4",
"D. c #827DAC",
"F. c #827DB4",
"G. c #827DBE",
"H. c #837CC3",
"J. c #8276CC",
"K. c #847BCB",
"L. c #8679D1",
"P. c #7F8196",
"I. c #808080",
"U. c #8B8981",
"Y. c #83849B",
"T. c #898A9E",
"R. c #8685A4",
"E. c #8A8BA4",
"W. c #8784AE",
"Q. c #8886AA",
"!. c #8C8BAC",
"~. c #908FAB",
"^. c #9495AB",
"/. c #9394AC",
"(. c #8483B5",
"). c #8B85B5",
"_. c #8D8AB4",
"`. c #8483BB",
"'. c #8B85BD",
"]. c #8B8ABD",
"[. c #938FB6",
"{. c #938DBC",
"}. c #9594B5",
"|. c #9592BB",
" X c #9997BC",
".X c #9D9DBA",
"XX c #A1A1BA",
"oX c #8681C3",
"OX c #8884C4",
"+X c #8D8BC3",
"@X c #8B84CB",
"#X c #8E89CA",
"$X c #928DC6",
"%X c #928BCC",
"&X c #9392C5",
"*X c #9C98C2",
"=X c #9694CA",
"-X c #9A94CA",
";X c #9C99CD",
":X c #8F87D0",
">X c #9084D6",
",X c #948AD3",
"<X c #9A93D4",
"1X c #9A94D4",
"2X c #9D9AD4",
"3X c #A29DD8",
"4X c #A4A4C3",
"5X c #ABABC4",
"6X c #A6A5C8",
"7X c #B0AECF",
"8X c #B7B7CD",
"9X c #A4A2D3",
"0X c #ABAAD4",
"qX c #A8A3D9",
"wX c #ADABDA",
"eX c #B0AFDA",
"rX c #B7B5D6",
"tX c #B9B9D3",
"yX c #B4B3DD",
"uX c #B7B2E5",
"iX c #BDBCE2",
"pX c #C1BFDA",
"aX c #C5C4DA",
"sX c #C9C8E4",
"dX c #D4D3EA",
/* pixels */
"o % ; ; < ; < ; < ; # o o $ $ ; < ; @ < $ = O o o $ < ; < ; $ = % % # O o # + @ @ @ ; @ @ $ o o ",
"% t L M M M Y M M M t O & U R T T T T T T R r . = U M M M M M M M M 4 o o . o 5 M M M M N k 1 . ",
"1 W G G P G G P P G T = r Q E W W W W W W Q E % r W G G P G P P P R M % . o * r B B B B B G k o ",
"2 W G G P P P P G G P - r Q E W Q Q W Q E Q E - r P G G G P G P G P U & o O 5 M B B B B B B k o ",
"1 W B R P P P P B P R - r Q E W E W W W Q W E % 4 G U Y P G G B R B I * o o 5 G B B B B B G U o ",
"2 W G G P P G R R B R = I Q W W W Q W W E Q E % + w = 5 M G P P G P Y & * e k B B B B G B B k X ",
"1 W R G G T G P B R R - r Q E W Q W W W | | | , > 0 0 ; ; s G P P G M . t G F B B F B B B G k o ",
"1 W B G G P P P R B R - r Q E W W | X.&.;.;.t.C v C v u 6 6 x J J G T . h B B B B B B B B F k o ",
"= N R G G P P P P P P - r W | | ....-.i.x.p.u.=.P.(.a.P.} v y { { } F # h G B B B B B G B G k o ",
". , N P P P P B P P P = h X.X...&.u.u.`.].x.(.5XtX$Xa.i.=.P.:.P.-.{ } ; v F B B B B B B B B k o ",
"o X ; B P W P W P P B > u &.;.;.a.!.6XwX9X=X6XdXsX`.i.i.t.X.P.`.x.t.{ q z C J G G G P G G G t X ",
"o X X , f j j g j f l 0 ; n _ ] !..X4X*X9XyXpXaX X#.9.O.' C S =.4Xu.Z c n p z a i i i d f d % o ",
"X % 1 % + < < < , w p n ; ; p b Q.rXW.W._._.6X7X!.{ A Z ] i. . . X_.=.| Y.S p q 9 , < < = . o o ",
"- h B j = k B B D _ C =.9 w A #.t.9XqXOXOX%X-XR.:.;.{ +.P.A.z.9XyX2X X.X4X(.%. .[ J P P h 4 % . ",
"1 P B B k g B D _ ] $.}.} { w.#.w.oXuX=Xb.OXH.*.Q._.`.oXZ.oX#XwX2X+X=X4XdXyX`.t.%.{ J G G G t o ",
"1 P B B B , i ] %.i.x.T. .-.+.+.9.@XqXoXz.H.Z.y.'.@XA.Z.Z.A.1X,Xb.b.x.Y.6XdXyX(.-.+.{ J G R Y X ",
"1 P B B B e 6 V #.#.O.A C %.#.w.l.1X@Xl.g.c.c.p.'.A.A.K.K.>X>Xv.g.v.x.} ].iXdX0XP.-.{ } K G U o ",
"1 G B B F D n S A y 0 p _ b.oX@X,X@Xc.d.k.C.A.z.e.v.Z.Z.V.J.>Xv.b.oX+XR.(.`.9XyX,Xi.} H J G Y o ",
"1 K B B B S +.i.A 8 ; y ] @X2X<X>XL.d.r.V.A.J.w.8.d.g.Z.V.C.K.Z.H.H.<X{.p.z.OXiXeX`.{ J J W k o ",
"1 P B B F [ #.b.%.m s z _ OXz.j.f.B.0.9.g.j.B.q.2.s.h.h.7.7.f.g.g.k.%X{.G.c.oX2XeX=X&.J D N ; o ",
"1 P B B D [ +.P.P.#.9.A _ G.v.g.q.d.8.( q.s.4.( 0.M.N.7.6.7.M.f.s.0.x.&X`.c.v.+XeX9Xi.V 6 @ o o ",
"1 P B F S ] t.9X,Xl.9.c b H.L.k.0.o.8.4.3.6.n.<.<.n.n.4.5.f.M.N.j.0.i.S.-XOXb.OX0XeXP.S 6 + o . ",
"% U P P } t.+XeXqX;Xx.V [ F.K.v.f.0.q.6.n.m.m.1.1.n.7.s.f.B.N.N.B.j.e.S.-XqX3XqXiX6XS q 6 ; . o ",
"o ; i a l o.t.6XsX0Xi.A S._.D.F.c.<.<.1.3.3.3.^ ! >.>.1.<.4.<.! ( <.( @.D.OX$X-X0X^.v > ; + . . ",
"o . . $ u z [ 4XsX X=..._.'.y.p.G.s.8.) ,.1.~ ! ^ ~ 1.^ 8.8./ l / @.' O.O.#.;.a.[.5X!.i 9 3 # o ",
"o o & k  .+.i.0XiX`.+X X;X,XK.J.J.C.J.h.2.<.( / ^ 1.q.8.0.s.5.5.s.v.b.W.).H.i.w.x.+X`.t.{ J t o ",
"o = h G  .t.a.0X9Xx.`._.'.:XK.J.7.7.f.8.@.8.2./ @.s.#.+.%.q.4.5.j.Z.oX_.=XqX$X=XwX0X`.y.$.} L X ",
"1 R P G } d.P.9XyXb.i.S.-X<XH.g.2.2.q.q.s.N.N.) ) s.8.9.#.q.s.q.9.v.1X|.G.@X=X=X&X$XF.%.{ K L X ",
"1 W B P } -.z.;XsX`.l._.$XoXg.,.) ) 2.N.C.J.C.e.8.s.h.h.f.f.s.%.+.x.@X*X,XL.x.i.x.+Xx.{ J P L X ",
"1 W P P H -.P.=XiX;X+X&Xz.q.8.q.s.k.J.J.C.j.C.z.@.s.j.B.j.j.d.%.#.l.b.=X+XP.`.OXP.K.t.{ } P L o ",
"1 I.P P H +.l.P.yX;X$X{.(.%.H.@X@Xv.k.V.s.q.Z.O.` s.h.h.V.A.v.r.c.V.oX&XP.@X#XOXi.-.%. .J P L o ",
"1 W P P P  .-.Z.x.x.p.:.~._.D.e.v.@XK.H.v.g.H.%.@.s.q.r.j.v.L.K.Z.:X9X`.P.wXP.-.{ +.+. .P P L X ",
"1 W G G G J +.-.+.' Z p [ A n Z i.#X2X,X@XH.,XF.e.e.0.w.v.K.%X:X#X2X-X!.}.sX;.[ +.{ { D P P Y X ",
"1 W P G G G } { Z z a C  .C b z *.|.|.;X1X,X,XF.D.g.r.l.OX2X<X{.[.*X7X5X/.8X} p [  . .G P P Y o ",
"$ M W W R W } A y 0 n P.} n n A Q.*XP.W.qX3X%X X;.g.r.H.3X3X'._./.XXtXpX5XT.n 0 y A K R W W e . ",
"% ; 8 9 9 9 9 > > y } E././.P.R.5X4X*...).-X0X.XA ' o.'.;X&X}.5XtXaXaXXXXXH 8 0 : > 9 w 9 9 # . ",
"o - t r r r t r ; q c a v T./.8X5XP.y y  .X.R...A y S .XE.=.R.~.XXXXP.P.P.v s a w e - . o . o o ",
"- T Q Q Q W Q Q U $ > > 8 D Y.~.P.S y 0 C S S S  .n | XX=.p } /.E.H n C C A [ H P N @ o 3 h e o ",
"2 U.W E R E R W T O # @ ; u C P.P.v c a S } P.C } X.X.E.X.} } | D v c a 0 N M G N ; . = M G M o ",
"2 U.W W W W W B r * &   # ; w a C v a a H } } P.E.X.X...} } s q 9 9 9 ; # - w j ; o % t B B k X ",
"1 U.W Q Q Q Y 1 % . O . . & = ; 8 q > q C D S P.P.} S C c 0 > ; @ + + o O & + + o % t B B B k o ",
"5 U.R E R M 3 O O O . . O O % . . @ > 8 u y a v v v u 8 > @ + o . . X o o   . % = t F B B G k o ",
"1 U.R W Q e o X . O .   . . . . o o o o # @ > > ; @ $ @ # . o o X X o . . X = M B B B B B G k o ",
"2 U.E R R 1 X o . . O . . . o . . o o X . . o o O o o o o o o o o o o o o X 4 P B B B B B B k o ",
"2 U.Q k 9 % o o o o o . o o o o o o o O O o o o . O o o o O o o o o o o o o 3 P B B B B B F k o ",
"1 M j ; O o . o o o o . o o o o o o o * * o o o o o o o o o o o o o o o o X # d G B B B B B k o ",
". $ % . o o o o o X o o o o o o o o o O o o o o o O o o o o o o o o o o o o X + d P P G G G 9 o ",
"o o o o o o o o o o X o o o o o o X . . o X o o o o o o o o O o o o o O o o o X + : 7 7 7 , . o "
};
